<?xml version="1.0" encoding="UTF-8" standalone="no"?>
<!-- Created with Inkscape (http://www.inkscape.org/) -->

<svg
   width="118.22621mm"
   height="104.86651mm"
   viewBox="0 0 118.22621 104.86651"
   version="1.1"
   id="svg1"
   xml:space="preserve"
   xmlns="http://www.w3.org/2000/svg"
   xmlns:svg="http://www.w3.org/2000/svg"><defs
     id="defs1" /><g
     id="layer1"
     transform="translate(-326.86457,25.602285)"><path
       style="fill:#ffffff"
       d="m 354.87168,79.026499 c -4.76504,-0.82829 -8.91654,-4.40326 -10.48008,-9.0247 l -0.63242,-1.86929 v -27.04642 c 0,-29.76782 -0.0835,-28.16809 1.63895,-31.4219804 1.49266,-2.81989 4.3263,-5.18132 7.62146,-6.3514 1.69762,-0.60281 1.89458,-0.61175 15.27969,-0.69374 l 13.5599,-0.0831 v -5.38611 -5.3861 l -1.30344,-0.95682 c -5.51861,-4.0510196 -4.69083,-12.4960696 1.52478,-15.5559996 1.54528,-0.76074 2.0022,-0.8613 3.87413,-0.85264 2.81748,0.013 4.89618,0.91992 6.74474,2.94254 3.62703,3.96855 3.0694,10.2579 -1.18703,13.3881496 l -1.16588,0.85741 -0.0103,5.47466 -0.0103,5.47466 13.42761,0.09 c 13.05801,0.0875 13.47603,0.1062 15.18706,0.67935 4.68629,1.56979 8.0584,5.37103 9.08557,10.2417604 0.58224,2.76097 0.58224,52.00778 0,54.76875 -1.12301,5.32523 -5.20979,9.49656 -10.37677,10.59146 -1.49986,0.31783 -6.65378,0.37525 -31.68909,0.35304 -16.44386,-0.0146 -30.4337,-0.11966 -31.08854,-0.23349 z m 46.96354,-13.45758 c 1.25884,-0.57806 1.82295,-1.1681 2.37116,-2.48013 0.75226,-1.80042 0.29015,-4.02696 -1.09592,-5.28039 -1.30161,-1.17706 -2.08753,-1.27643 -9.9538,-1.25857 -4.11627,0.009 -7.65005,-0.156145 -7.88614,-0.13727 0,0 -10.10526,-0.269165 -15.053,0.58834 -0.56772,0.09839 -1.19395,0.164502 -1.6492,0.517668 -0.67384,0.522738 -1.15289,1.343973 -1.34901,2.173946 -0.31128,1.317325 -0.29661,2.865951 0.37025,4.043892 0.49002,0.865576 0.89322,1.012654 2.4079,1.762404 1.13101,0.55984 1.34114,0.56723 15.96277,0.56171 13.81043,-0.005 14.88854,-0.0386 15.875,-0.4916 z m -30.55938,-27.31902 c 3.83292,-1.67676 5.48682,-6.28034 3.6212,-10.0795 -2.63854,-5.37318 -10.35371,-5.5307 -13.21703,-0.26983 -1.50145,2.75865 -1.15098,6.04777 0.89167,8.36835 2.31944,2.63502 5.53577,3.36703 8.70416,1.98098 z m 35.31748,0.15035 c 3.63339,-1.52789 5.48111,-5.6319 4.23062,-9.39675 -0.95976,-2.88957 -3.99282,-5.00569 -7.17474,-5.00569 -2.67572,0 -5.52275,1.91448 -6.68888,4.49792 -0.70739,1.56713 -0.73414,4.46329 -0.055,5.95313 1.69152,3.71067 6.04139,5.48483 9.68799,3.95139 z m -70.74976,21.95443 c -2.7757,-0.74629 -5.94157,-3.19024 -7.34149,-5.6674 -1.43515,-2.53951 -1.49361,-2.98563 -1.61188,-12.30095 -0.0663,-5.2198 -9.1e-4,-9.52369 0.16252,-10.70165 0.70557,-5.08529 4.53584,-9.2328 9.50959,-10.29725 0.77115,-0.16503 1.63435,-0.30006 1.91823,-0.30006 0.50722,0 0.51615,0.34328 0.51615,19.84375 v 19.84375 l -0.8599,-0.0174 c -0.47294,-0.01 -1.50489,-0.19083 -2.29322,-0.40278 z m 97.0802,-19.29957 c 0,-17.22045 0.0499,-19.73893 0.39399,-19.87096 0.6907,-0.26504 4.18495,0.67646 5.67574,1.5293 1.78449,1.02086 3.62463,2.88498 4.57274,4.63234 1.36895,2.52297 1.52018,3.88484 1.52445,13.72818 0.004,9.75671 -0.098,10.68033 -1.48561,13.41861 -1.70692,3.36845 -6.23917,6.26607 -9.82142,6.27915 l -0.85989,0.003 z"
       id="path1" /></g></svg>
