<svg xmlns="http://www.w3.org/2000/svg" xmlns:xlink="http://www.w3.org/1999/xlink" width="200" zoomAndPan="magnify" viewBox="0 0 150 176.249993" height="235" preserveAspectRatio="xMidYMid meet" version="1.0"><defs><clipPath id="3a390eec1e"><path d="M 1 0 L 148.933594 0 L 148.933594 174.777344 L 1 174.777344 Z M 1 0 " clip-rule="nonzero"/></clipPath></defs><g clip-path="url(#3a390eec1e)"><path fill="#6934d5" d="M 127.433594 60.996094 L 136.460938 58.988281 C 136.792969 58.914062 137.125 59.078125 137.273438 59.386719 L 145.515625 76.792969 C 145.730469 77.246094 146.328125 77.351562 146.683594 76.996094 L 148.640625 75.039062 C 148.816406 74.859375 148.886719 74.625 148.835938 74.378906 L 143.636719 49.324219 C 143.558594 48.960938 143.222656 48.710938 142.851562 48.75 L 126.347656 50.480469 C 126.105469 50.507812 125.957031 50.757812 126.054688 50.984375 C 127.371094 54.015625 127.683594 57.375 127 60.566406 C 126.945312 60.824219 127.171875 61.054688 127.433594 60.996094 Z M 34.507812 174.730469 L 90.914062 174.730469 C 92.820312 174.730469 94.375 173.175781 94.375 171.269531 L 94.375 166.273438 C 94.375 164.371094 92.820312 162.816406 90.914062 162.816406 L 34.507812 162.816406 C 32.601562 162.816406 31.046875 164.371094 31.046875 166.273438 L 31.046875 171.269531 C 31.046875 173.175781 32.601562 174.730469 34.507812 174.730469 Z M 44.136719 157.382812 L 44.136719 143.09375 C 44.136719 132.878906 52.496094 124.519531 62.710938 124.519531 C 72.925781 124.519531 81.285156 132.878906 81.285156 143.09375 L 81.285156 157.382812 C 81.285156 157.582031 81.121094 157.746094 80.921875 157.746094 L 44.5 157.746094 C 44.300781 157.746094 44.136719 157.582031 44.136719 157.382812 Z M 51.164062 143.09375 C 51.164062 149.449219 56.355469 154.640625 62.710938 154.640625 C 69.066406 154.640625 74.257812 149.449219 74.257812 143.09375 C 74.257812 136.738281 69.066406 131.546875 62.710938 131.546875 C 56.355469 131.546875 51.164062 136.738281 51.164062 143.09375 Z M 56.234375 143.09375 C 56.234375 146.652344 59.152344 149.570312 62.710938 149.570312 C 66.269531 149.570312 69.1875 146.652344 69.1875 143.09375 C 69.1875 139.539062 66.269531 136.617188 62.710938 136.617188 C 59.152344 136.617188 56.234375 139.539062 56.234375 143.09375 Z M 6.871094 52.390625 C 14.128906 45.132812 25.894531 45.132812 33.148438 52.390625 C 40.40625 59.644531 40.40625 71.410156 33.148438 78.667969 C 25.894531 85.925781 14.128906 85.925781 6.871094 78.667969 C -0.386719 71.410156 -0.386719 59.644531 6.871094 52.390625 Z M 12.097656 57.617188 C 7.75 61.964844 7.75 69.09375 12.097656 73.441406 C 16.445312 77.789062 23.574219 77.789062 27.921875 73.441406 C 32.269531 69.09375 32.269531 61.964844 27.921875 57.617188 C 23.574219 53.269531 16.445312 53.269531 12.097656 57.617188 Z M 15.683594 61.203125 C 13.308594 63.578125 13.308594 67.480469 15.683594 69.855469 C 18.058594 72.230469 21.960938 72.230469 24.335938 69.855469 C 26.710938 67.480469 26.710938 63.578125 24.335938 61.203125 C 21.960938 58.824219 18.058594 58.824219 15.683594 61.203125 Z M 56.503906 5.65625 C 62.890625 -0.730469 73.242188 -0.730469 79.632812 5.65625 C 86.019531 12.042969 86.019531 22.398438 79.632812 28.785156 C 73.242188 35.171875 62.890625 35.171875 56.503906 28.785156 C 50.117188 22.398438 50.117188 12.042969 56.503906 5.65625 Z M 60.886719 10.042969 C 56.945312 13.984375 56.945312 20.453125 60.886719 24.398438 C 64.832031 28.34375 71.300781 28.34375 75.246094 24.398438 C 79.1875 20.453125 79.1875 13.984375 75.246094 10.042969 C 71.300781 6.097656 64.832031 6.097656 60.886719 10.042969 Z M 64.472656 13.628906 C 62.5 15.601562 62.5 18.839844 64.472656 20.8125 C 66.445312 22.785156 69.6875 22.785156 71.660156 20.8125 C 73.632812 18.839844 73.632812 15.601562 71.660156 13.628906 C 69.6875 11.652344 66.445312 11.652344 64.472656 13.628906 Z M 104.132812 49.730469 C 108.285156 45.578125 115.015625 45.578125 119.167969 49.730469 C 123.320312 53.882812 123.320312 60.613281 119.167969 64.765625 C 115.015625 68.914062 108.285156 68.914062 104.132812 64.765625 C 99.980469 60.613281 99.980469 53.878906 104.132812 49.730469 Z M 115.402344 73.027344 L 113.394531 82.054688 C 113.320312 82.390625 113.480469 82.71875 113.792969 82.867188 L 131.199219 91.113281 C 131.652344 91.328125 131.753906 91.921875 131.398438 92.277344 L 129.445312 94.234375 C 129.265625 94.414062 129.03125 94.484375 128.785156 94.433594 L 103.730469 89.230469 C 103.363281 89.15625 103.117188 88.816406 103.15625 88.445312 L 104.886719 71.945312 C 104.910156 71.699219 105.164062 71.550781 105.390625 71.648438 C 108.421875 72.964844 111.78125 73.28125 114.972656 72.59375 C 115.230469 72.539062 115.457031 72.769531 115.402344 73.027344 Z M 68.554688 119.527344 L 39.867188 79.253906 C 39.722656 79.050781 39.421875 79.050781 39.277344 79.253906 C 34.949219 85.316406 28.0625 88.992188 20.589844 89.171875 C 20.328125 89.179688 20.160156 89.449219 20.269531 89.6875 L 40.363281 133.703125 C 40.492188 133.984375 40.898438 133.980469 41.023438 133.695312 C 45.613281 123.179688 57.074219 117.441406 68.175781 120.089844 C 68.503906 120.167969 68.75 119.800781 68.554688 119.527344 Z M 43.199219 58.550781 L 60.382812 37.734375 C 60.542969 37.542969 60.46875 37.257812 60.238281 37.167969 C 54.519531 34.925781 50.003906 30.292969 47.917969 24.515625 C 47.832031 24.28125 47.542969 24.199219 47.347656 24.359375 L 25.933594 42.035156 C 25.707031 42.222656 25.789062 42.589844 26.074219 42.664062 C 33.902344 44.730469 40.15625 50.707031 42.574219 58.429688 C 42.660156 58.707031 43.015625 58.773438 43.199219 58.550781 Z M 78.34375 36.589844 L 96.496094 51.574219 C 96.6875 51.730469 96.972656 51.660156 97.0625 51.429688 C 98.652344 47.4375 101.84375 44.25 105.835938 42.660156 C 106.0625 42.566406 106.136719 42.28125 105.980469 42.09375 L 89.515625 22.144531 C 89.324219 21.914062 88.953125 22 88.882812 22.289062 C 87.46875 28.125 83.648438 33.105469 78.398438 35.996094 C 78.175781 36.117188 78.144531 36.425781 78.34375 36.589844 Z M 78.34375 36.589844 " fill-opacity="1" fill-rule="evenodd"/></g></svg>